<?xml version="1.0" encoding="UTF-8" standalone="no" ?>
<!DOCTYPE svg PUBLIC "-//W3C//DTD SVG 1.1//EN" "http://www.w3.org/Graphics/SVG/1.1/DTD/svg11.dtd">
<svg xmlns="http://www.w3.org/2000/svg" xmlns:xlink="http://www.w3.org/1999/xlink" version="1.1" width="1080" height="1080" viewBox="0 0 1080 1080" xml:space="preserve">
<desc>Created with Fabric.js 5.2.4</desc>
<defs>
</defs>
<rect x="0" y="0" width="100%" height="100%" fill="transparent"></rect>
<g transform="matrix(1 0 0 1 540 540)" id="09ac800d-29f3-4193-b9f5-faf19e8b1726"  >
<rect style="stroke: none; stroke-width: 1; stroke-dasharray: none; stroke-linecap: butt; stroke-dashoffset: 0; stroke-linejoin: miter; stroke-miterlimit: 4; fill: rgb(255,255,255); fill-rule: nonzero; opacity: 1; visibility: hidden;" vector-effect="non-scaling-stroke"  x="-540" y="-540" rx="0" ry="0" width="1080" height="1080" />
</g>
<g transform="matrix(Infinity NaN NaN Infinity 0 0)" id="619f0364-53a0-4caa-97e3-8f543e0cc17f"  >
</g>
<g transform="matrix(NaN NaN NaN NaN 0 0)"  >
<g style=""   >
</g>
</g>
<g transform="matrix(17.7 0 0 17.7 540 540)"  >
<g style="" vector-effect="non-scaling-stroke"   >
		<g transform="matrix(1 0 0 1 -18.25 0)"  >
<path style="stroke: none; stroke-width: 1; stroke-dasharray: none; stroke-linecap: butt; stroke-dashoffset: 0; stroke-linejoin: miter; stroke-miterlimit: 4; fill: rgb(52,81,178); fill-rule: nonzero; opacity: 1;" vector-effect="non-scaling-stroke"  transform=" translate(-5, -9)" d="M 5 14 C 5.8 14 6 13.3333 6 13 L 6 4 L 0 4 L 0 0 L 6 0 L 10 0 L 10 13 C 10 17 6.66667 18 5 18 L 0 18 L 0 14 L 5 14 Z" stroke-linecap="round" />
</g>
		<g transform="matrix(1 0 0 1 16.75 0)"  >
<path style="stroke: none; stroke-width: 1; stroke-dasharray: none; stroke-linecap: butt; stroke-dashoffset: 0; stroke-linejoin: miter; stroke-miterlimit: 4; fill: rgb(52,81,178); fill-rule: nonzero; opacity: 1;" vector-effect="non-scaling-stroke"  transform=" translate(-40, -9)" d="M 46.5 4 L 46.5 0 L 39 0 C 37.1667 0 33.5 1.1 33.5 5.5 C 33.5 9.9 36.8333 11 38.5 11 L 41 11 C 41.5 11 42.5 11.3 42.5 12.5 C 42.5 13.7 41.5 14 41 14 L 33.5 14 L 33.5 18 L 41.5 18 C 43.1667 18 46.5 16.9 46.5 12.5 C 46.5 8.1 43.1667 7 41.5 7 L 39 7 C 38.5 7 37.5 6.7 37.5 5.5 C 37.5 4.3 38.5 4 39 4 L 46.5 4 Z" stroke-linecap="round" />
</g>
		<g transform="matrix(1 0 0 1 3.25 0)"  >
<path style="stroke: none; stroke-width: 1; stroke-dasharray: none; stroke-linecap: butt; stroke-dashoffset: 0; stroke-linejoin: miter; stroke-miterlimit: 4; fill: rgb(52,81,178); fill-rule: evenodd; opacity: 1;" vector-effect="non-scaling-stroke"  transform=" translate(-26.5, -9)" d="M 32.5 0 L 32.5 4 L 30.5 4 C 28.5 4 24.5 5 24.5 9 C 24.5 11.0835 25.5853 12.3531 26.9078 13.0914 L 22.4606 14.661 C 21.2893 13.3156 20.5 11.4775 20.5 9 C 20.5 1.8 27.1667 0 30.5 0 L 32.5 0 Z M 24.4656 16.3357 C 26.5037 17.5803 28.8905 18 30.5 18 L 32.5 18 L 32.5 14 L 31.0833 14 L 24.4656 16.3357 Z" stroke-linecap="round" />
</g>
		<g transform="matrix(1 0 0 1 -5 0)"  >
<path style="stroke: none; stroke-width: 1; stroke-dasharray: none; stroke-linecap: butt; stroke-dashoffset: 0; stroke-linejoin: miter; stroke-miterlimit: 4; fill: rgb(52,81,178); fill-rule: evenodd; opacity: 1;" vector-effect="non-scaling-stroke"  transform=" translate(-18.25, -9)" d="M 25.3793 0 C 24.766 0.241156 24.1568 0.53354 23.571 0.885014 C 22.1712 1.72492 20.9038 2.91123 20.0606 4.5 L 11 4.5 L 11 0 L 25.3793 0 Z M 25.5 4.39421 C 25.445 4.42876 25.3906 4.46402 25.3368 4.5 L 25.5 4.5 L 25.5 4.39421 Z M 20.0606 13.5 C 20.9038 15.0888 22.1712 16.2751 23.571 17.115 C 24.1568 17.4665 24.766 17.7588 25.3793 18 L 11 18 L 11 13.5 L 20.0606 13.5 Z M 19.1854 7 C 19.0649 7.62348 19 8.28956 19 9 C 19 9.71044 19.0649 10.3765 19.1854 11 L 11 11 L 11 7 L 19.1854 7 Z" stroke-linecap="round" />
</g>
</g>
</g>
<g transform="matrix(NaN NaN NaN NaN 0 0)"  >
<g style=""   >
</g>
</g>
<g transform="matrix(NaN NaN NaN NaN 0 0)"  >
<g style=""   >
</g>
</g>
</svg>